<!--?xml version="1.0" encoding="utf-8"?-->
<!-- Generator: Adobe Illustrator 18.1.1, SVG Export Plug-In . SVG Version: 6.00 Build 0)  -->

<svg version="1.1" id="_x32_" xmlns="http://www.w3.org/2000/svg" xmlns:xlink="http://www.w3.org/1999/xlink" x="0px" y="0px" viewBox="0 0 512 512" style="width: 256px; height: 256px; opacity: 1;" xml:space="preserve">
<style type="text/css">
	.st0{fill:#4B4B4B;}
</style>
<g>
	<path class="st0" d="M494.509,329.337c2.798-8.37-1.359-27.292-21.839-29.338c-18.723-1.871-32.728-10.209-32.728-29.33
		c0-10.912,9.752-32.896,25.054-30.194c10.2,1.806,19.665-0.072,22.047-12.031c1.999-10.024-14.709-22.263-22.991-16.076
		c-14.404,10.784-26.252-7.858-25.133-18.002c1.422-12.678,6.603-26.292,41.154-39.834c9.576-3.757,20-12.295,12.982-25.326
		c-6.46-12.007-20.129-9.065-27.388-1.758c-29.29,29.442-41.201,31.024-55.942,8.729c-11.432-17.243-17.731-20.089-33.287-30.737
		c-9.529-6.515,7.642-22.991,14.389-29.865c4.892-4.956,3.021-12.631-3.597-16.228c-4.573-2.494-12.183,2.206-13.847,7.81
		c-2.126,7.25-5.995,18.042-17.219,17.147c-25.452-2.014-23.742-17.811-13.318-29.93c8.186-9.521,17.299-42.192-5.228-48.379
		c-24.061-6.619-35.126,20.193-35.478,32.744c-0.591,21.832-16.372,36.836-31.368,34.102c-9.273-1.687-42.033,2.662-50.746,5.332
		c-8.714,2.67-22.799,0.224-26.077-9.545c-5.9-17.602-20.928-16.292-26.94-13.094c-6.028,3.19-12.534,15.525-2.142,29.115
		c9.721,12.67-1.902,20.361-4.685,25.333c-6.795,12.207-38.019,18.227-48.044-9.84c-6.492-18.171-32.12-37.748-45.182-20.353
		c-8.842,11.792-1.743,34.806,21.12,42.4c18.69,6.212,34.038,20.057,28.043,40.642c-5.868,20.121-18.45,23.614-31.001,17.315
		c-7.322-3.662-12.007,2.055-13.286,6.267c-1.295,4.213,1.438,11.016,7.498,12.622c21.647,5.716,25.037,19.626,25.772,29.026
		c1.887,24.022-28.602,29.018-45.982,23.15c-13.462-4.548-34.805,3.486-30.441,21.752c4.444,18.706,28.587,17.563,37.412,12.182
		c22.623-13.805,39.027,9.585,41.76,18.275c13.51,42.911,25.022,48.835,30.745,55.918c5.724,7.083,12.854,19.658-15.828,40.586
		c-8.345,6.092-4.988,19.418,0.32,23.846c5.292,4.445,16.739,7.674,23.55-3.845c14.421-24.366,31.801-20.64,40.194-16.348
		c37.7,19.25,4.86,66.79,1.567,75.272c-2.271,5.852-3.518,22.08,7.61,26.98c10.44,4.596,20.96-4.42,22.463-17.954
		c1.087-9.745-0.831-68.205,36.741-63.385c5.851,0.744,19.233,3.645,18.498,18.53c-0.528,10.912,3.549,31.016,19.601,29.018
		c15.908-1.998,20.545-22.663,16.468-32.743c-6.939-17.155,9.049-22.344,13.877-25.365c13.926-8.706,33.719,7.97,37.524,27.755
		c2.046,10.64,15.684,43.832,38.18,31.417c25.229-13.926,0.831-40.338-6.651-48.18c-12.103-12.694-20.321-39.706,1.679-49.818
		c5.18-2.374,16.547-12.758,21.056-21.048c4.509-8.282,17.667-32.903,45.662-16.292
		C471.902,344.165,490.416,341.616,494.509,329.337z" style="fill: rgb(255, 255, 255);"></path>
	<path class="st0" d="M13.03,209.466c-7.195,0-13.03,5.836-13.03,13.03s5.836,13.022,13.03,13.022s13.03-5.828,13.03-13.022
		S20.225,209.466,13.03,209.466z" style="fill: rgb(255, 255, 255);"></path>
	<path class="st0" d="M71.306,417.798c-8.538,0-15.476,6.923-15.476,15.469c0,8.537,6.938,15.468,15.476,15.468
		c8.553,0,15.476-6.931,15.476-15.468C86.782,424.721,79.86,417.798,71.306,417.798z" style="fill: rgb(255, 255, 255);"></path>
	<path class="st0" d="M448.128,379.979c-4.428,0-8.01,3.589-8.01,8.018c0,4.42,3.581,8.018,8.01,8.018
		c4.429,0,8.026-3.598,8.026-8.018C456.154,383.568,452.557,379.979,448.128,379.979z" style="fill: rgb(255, 255, 255);"></path>
	<path class="st0" d="M499.978,352.775c-6.651,0-12.024,5.388-12.024,12.031s5.372,12.031,12.024,12.031
		c6.651,0,12.022-5.388,12.022-12.031S506.628,352.775,499.978,352.775z" style="fill: rgb(255, 255, 255);"></path>
	<path class="st0" d="M148.96,45.006c8.858,0,16.036-7.186,16.036-16.036c0-8.865-7.178-16.043-16.036-16.043
		c-8.857,0-16.036,7.178-16.036,16.043C132.924,37.819,140.103,45.006,148.96,45.006z" style="fill: rgb(255, 255, 255);"></path>
</g>
</svg>
