<!--?xml version="1.0" encoding="utf-8"?-->
<!-- Generator: Adobe Illustrator 18.1.1, SVG Export Plug-In . SVG Version: 6.00 Build 0)  -->

<svg version="1.1" id="_x32_" xmlns="http://www.w3.org/2000/svg" xmlns:xlink="http://www.w3.org/1999/xlink" x="0px" y="0px" viewBox="0 0 512 512" style="width: 256px; height: 256px; opacity: 1;" xml:space="preserve">
<style type="text/css">
	.st0{fill:#4B4B4B;}
</style>
<g>
	<path class="st0" d="M45.281,96.616c0-12.506-10.141-22.64-22.64-22.64C10.142,73.975,0,84.109,0,96.616
		s10.142,22.641,22.641,22.641C35.14,119.257,45.281,109.122,45.281,96.616z" style="fill: rgb(230, 180, 34);"></path>
	<path class="st0" d="M139.319,119.257c12.506,0,22.641-10.135,22.641-22.641s-10.134-22.64-22.641-22.64
		c-12.499,0-22.64,10.134-22.64,22.64S126.82,119.257,139.319,119.257z" style="fill: rgb(230, 180, 34);"></path>
	<path class="st0" d="M256.004,119.257c12.492,0,22.641-10.135,22.641-22.641s-10.149-22.64-22.641-22.64
		c-12.499,0-22.64,10.134-22.64,22.64S243.505,119.257,256.004,119.257z" style="fill: rgb(230, 180, 34);"></path>
	<circle class="st0" cx="372.682" cy="96.616" r="22.641" style="fill: rgb(230, 180, 34);"></circle>
	<path class="st0" d="M489.36,73.975c-12.492,0-22.641,10.134-22.641,22.64s10.149,22.641,22.641,22.641
		c12.499,0,22.64-10.135,22.64-22.641S501.859,73.975,489.36,73.975z" style="fill: rgb(230, 180, 34);"></path>
	<path class="st0" d="M372.696,140.737l-58.346,65.114l-58.339-65.114l-58.339,65.114l-58.354-65.114l-58.331,65.114l-58.346-65.114
		v231.078h466.755V140.737l-58.346,65.114L372.696,140.737z M139.319,327.52l-29.162-32.571l29.162-32.558l29.184,32.558
		L139.319,327.52z M256.011,327.52l-29.176-32.571l29.176-32.558l29.17,32.558L256.011,327.52z M372.696,327.52l-29.169-32.571
		l29.169-32.558l29.17,32.558L372.696,327.52z" style="fill: rgb(230, 180, 34);"></path>
	<rect x="22.641" y="401.426" class="st0" width="466.755" height="36.598" style="fill: rgb(230, 180, 34);"></rect>
</g>
</svg>
